<svg xmlns="http://www.w3.org/2000/svg" viewBox="-4 -6 108 112"><path d="M38 18 L30 0 M62 18 L70 0" stroke="#2B1330" stroke-width="3.4" stroke-linecap="round"/><circle cx="30" cy="0" r="5.5" fill="#FB69AC" stroke="#2B1330" stroke-width="2.8" stroke-linejoin="round" stroke-linecap="round" /><circle cx="70" cy="0" r="5.5" fill="#FB69AC" stroke="#2B1330" stroke-width="2.8" stroke-linejoin="round" stroke-linecap="round" /><path d="M50 12 C80 12 94 36 88 58 C84 76 68 90 50 90 C32 90 16 76 12 58 C6 36 20 12 50 12 Z" fill="#8CE36B" stroke="#2B1330" stroke-width="3.2" stroke-linejoin="round" stroke-linecap="round" /><ellipse cx="33" cy="48" rx="13" ry="18" transform="rotate(24 33 48)" fill="#2B1330"/><ellipse cx="67" cy="48" rx="13" ry="18" transform="rotate(-24 67 48)" fill="#2B1330"/><ellipse cx="29" cy="42" rx="3.4" ry="5" transform="rotate(24 29 42)" fill="#FFFFFF"/><ellipse cx="63" cy="42" rx="3.4" ry="5" transform="rotate(-24 63 42)" fill="#FFFFFF"/><circle cx="46" cy="66" r="1.6" fill="#2B1330"/><circle cx="54" cy="66" r="1.6" fill="#2B1330"/><path d="M40 74 Q50 82 60 74" fill="none" stroke="#2B1330" stroke-width="3.4" stroke-linecap="round"/><path d="M22 28 Q26 22 32 24" fill="none" stroke="#C6F5B0" stroke-width="3" stroke-linecap="round"/></svg>
