<svg xmlns="http://www.w3.org/2000/svg" viewBox="-4 -6 108 112"><path d="M20 40 L18 8 L42 24 Z" fill="#D9AE82" stroke="#2B1330" stroke-width="3.2" stroke-linejoin="round" stroke-linecap="round" /><path d="M80 40 L82 8 L58 24 Z" fill="#D9AE82" stroke="#2B1330" stroke-width="3.2" stroke-linejoin="round" stroke-linecap="round" /><ellipse cx="14" cy="64" rx="9" ry="19" transform="rotate(8 14 64)" fill="#B98A5C" stroke="#2B1330" stroke-width="3.2" stroke-linejoin="round" stroke-linecap="round" /><ellipse cx="86" cy="64" rx="9" ry="19" transform="rotate(-8 86 64)" fill="#B98A5C" stroke="#2B1330" stroke-width="3.2" stroke-linejoin="round" stroke-linecap="round" /><ellipse cx="50" cy="56" rx="35" ry="35" fill="#D9AE82" stroke="#2B1330" stroke-width="3.2" stroke-linejoin="round" stroke-linecap="round" /><ellipse cx="50" cy="74" rx="21" ry="16" fill="#F6E4C8"/><path d="M36 70 q4 5 8 0" fill="none" stroke="#C99B6A" stroke-width="2.4" stroke-linecap="round"/><path d="M46 74 q4 5 8 0" fill="none" stroke="#C99B6A" stroke-width="2.4" stroke-linecap="round"/><path d="M56 70 q4 5 8 0" fill="none" stroke="#C99B6A" stroke-width="2.4" stroke-linecap="round"/><path d="M41 82 q4 5 8 0" fill="none" stroke="#C99B6A" stroke-width="2.4" stroke-linecap="round"/><path d="M51 82 q4 5 8 0" fill="none" stroke="#C99B6A" stroke-width="2.4" stroke-linecap="round"/><circle cx="34" cy="46" r="16" fill="#FFFFFF" stroke="#2B1330" stroke-width="4.6" stroke-linejoin="round" stroke-linecap="round" /><circle cx="66" cy="46" r="16" fill="#FFFFFF" stroke="#2B1330" stroke-width="4.6" stroke-linejoin="round" stroke-linecap="round" /><path d="M49 44 H51" stroke="#2B1330" stroke-width="4.6" stroke-linecap="round"/><rect x="43" y="40" width="14" height="7" rx="2" fill="#FFFFFF" stroke="#2B1330" stroke-width="2"/><circle cx="35" cy="48" r="7" fill="#2B1330"/><circle cx="67" cy="48" r="7" fill="#2B1330"/><circle cx="32.5" cy="45" r="2.4" fill="#FFFFFF"/><circle cx="64.5" cy="45" r="2.4" fill="#FFFFFF"/><path d="M44 60 L56 60 L50 70 Z" fill="#FF9A3C" stroke="#2B1330" stroke-width="2.8" stroke-linejoin="round" stroke-linecap="round" /><path d="M18 46 L8 40 M82 46 L92 40" stroke="#2B1330" stroke-width="3.6" stroke-linecap="round"/></svg>
