<svg xmlns="http://www.w3.org/2000/svg" viewBox="-4 -6 108 112"><path d="M17 46 L19 12 L43 27 Z" fill="#FFBB77" stroke="#2B1330" stroke-width="3.2" stroke-linejoin="round" stroke-linecap="round" /><path d="M83 46 L81 12 L57 27 Z" fill="#FFBB77" stroke="#2B1330" stroke-width="3.2" stroke-linejoin="round" stroke-linecap="round" /><path d="M23 36 L24 20 L35 28 Z" fill="#FF9DB5"/><path d="M77 36 L76 20 L65 28 Z" fill="#FF9DB5"/><ellipse cx="50" cy="56" rx="35" ry="31" fill="#FFBB77" stroke="#2B1330" stroke-width="3.2" stroke-linejoin="round" stroke-linecap="round" /><path d="M44 28 L44 36 M50 26 L50 36 M56 28 L56 36" stroke="#F08A2E" stroke-width="3.4" stroke-linecap="round"/><path d="M27 48 Q34 40 41 48 M59 48 Q66 40 73 48" fill="none" stroke="#2B1330" stroke-width="3.6" stroke-linecap="round"/><path d="M8 60 L26 62" stroke="#2B1330" stroke-width="2.2" stroke-linecap="round"/><path d="M8 70 L26 68" stroke="#2B1330" stroke-width="2.2" stroke-linecap="round"/><path d="M92 60 L74 62" stroke="#2B1330" stroke-width="2.2" stroke-linecap="round"/><path d="M92 70 L74 68" stroke="#2B1330" stroke-width="2.2" stroke-linecap="round"/><path d="M45 56 L55 56 L50 62 Z" fill="#FF7FA8" stroke="#2B1330" stroke-width="2" stroke-linejoin="round"/><ellipse cx="50" cy="73" rx="10" ry="11" fill="#2B1330"/><ellipse cx="50" cy="79" rx="6" ry="5" fill="#FF7FA8"/><circle cx="26" cy="58" r="5" fill="#FF7FA8" opacity="0.55"/><circle cx="74" cy="58" r="5" fill="#FF7FA8" opacity="0.55"/></svg>
