<svg xmlns="http://www.w3.org/2000/svg" viewBox="-4 -6 108 112"><path d="M18 56 C18 24 36 10 50 10 C64 10 82 24 82 56 C82 62 80 66 82 74 C84 82 76 86 72 80 C70 77 68 74 66 78 C64 84 56 88 54 80 C53 76 50 74 48 80 C46 88 38 86 36 78 C34 74 32 77 30 80 C26 86 16 82 18 74 C20 66 18 62 18 56 Z" fill="#FE8D7F" stroke="#2B1330" stroke-width="3.2" stroke-linejoin="round" stroke-linecap="round" /><circle cx="34" cy="26" r="4" fill="#FFC1B8"/><circle cx="66" cy="70" r="3" fill="#E8604F"/><circle cx="30" cy="66" r="3" fill="#E8604F"/><circle cx="72" cy="40" r="3" fill="#E8604F"/><circle cx="38" cy="50" r="8" fill="#FFFFFF" stroke="#2B1330" stroke-width="2.6" stroke-linejoin="round" stroke-linecap="round" /><circle cx="39" cy="51" r="4.0" fill="#2B1330"/><circle cx="37.6" cy="49.4" r="1.4" fill="#FFFFFF"/><circle cx="62" cy="50" r="8" fill="#FFFFFF" stroke="#2B1330" stroke-width="2.6" stroke-linejoin="round" stroke-linecap="round" /><circle cx="61" cy="51" r="4.0" fill="#2B1330"/><circle cx="59.6" cy="49.4" r="1.4" fill="#FFFFFF"/><circle cx="27" cy="62" r="5" fill="#FF7FA8" opacity="0.55"/><circle cx="73" cy="62" r="5" fill="#FF7FA8" opacity="0.55"/><path d="M42 63 Q50 70 58 63" fill="none" stroke="#2B1330" stroke-width="3.2" stroke-linecap="round"/><path d="M17 46 C14 2 86 2 83 46" fill="none" stroke="#2B1330" stroke-width="5.5" stroke-linecap="round"/><rect x="8" y="38" width="14" height="26" rx="7" fill="#FFE65D" stroke="#2B1330" stroke-width="3.2" stroke-linejoin="round" stroke-linecap="round" /><rect x="78" y="38" width="14" height="26" rx="7" fill="#FFE65D" stroke="#2B1330" stroke-width="3.2" stroke-linejoin="round" stroke-linecap="round" /></svg>
